# xmcd CD database file
#
# Track frame offsets:
#	150
#	25972
#	42547
#	58965
#	74643
#	100021
#	121162
#	144218
#	159337
#	172631
#	188529
#	204301
#	224203
#	242557
#
# Disc length: 3477 seconds
#
# Revision: 0
# Processed by: cddbd v1.5.2PL0 Copyright (c) Steve Scherf et al.
# Submitted via: CDex 1.70beta2
#
DISCID=c30d930e
DTITLE=Various Artist - Victor - By Hasselblad
DYEAR=2006
DGENRE=Jazz
TTITLE0=Leila Pantel - Energia
TTITLE1=Al Jarreau - Aqua De Beber
TTITLE2=Kate The Cat - I Was Made For Loving You Baby
TTITLE3=Barry White - Playing Your Game Baby
TTITLE4=C.R. Project - He Say
TTITLE5=Sinan - Moments On Earth
TTITLE6=Omenzetter - 99 Reasons
TTITLE7=Sevgi - Teach Me
TTITLE8=Aretha Franklin - Day Dreaming
TTITLE9=Timmy Thomas - Why Can't We Live Together
TTITLE10=C.R. Project - And Baby
TTITLE11=Ruzomberok - The Truth
TTITLE12=Particular - France
TTITLE13=Kate The Cat - Love
EXTD=YEAR: 2006
EXTT0=
EXTT1=
EXTT2=
EXTT3=
EXTT4=
EXTT5=
EXTT6=
EXTT7=
EXTT8=
EXTT9=
EXTT10=
EXTT11=
EXTT12=
EXTT13=
PLAYORDER=
